<?xml version="1.0" encoding="UTF-8"?>
<svg xmlns="http://www.w3.org/2000/svg" viewBox="0 0 1800 900" width="1800" height="900" role="img" aria-labelledby="svg-title svg-desc">
  <title id="svg-title">ห่วงโซ่อุปทานโลก</title>
  <desc id="svg-desc">แผนผังเครือข่ายหลายชั้นจากวัตถุดิบ ผู้ขายชั้นที่สอง ผู้ขายชั้นที่หนึ่ง การประกอบ คลัง ขนส่ง และตลาด แยกทิศการไหลของวัตถุดิบ ชิ้นส่วน สินค้า ข้อมูล เงิน การคืนกลับ และผลกระทบแฝง พร้อมจุดคอขวด ความเสี่ยงกระจุกตัว และทางเลือกกระจายผู้ขาย</desc>
  <metadata><![CDATA[
{
  "assetId": "global-supply-chain-th",
  "titleTH": "ห่วงโซ่อุปทานโลก",
  "productionMode": "deterministic-svg-conceptual-network",
  "notToScale": true,
  "usesRealRoutes": false,
  "created": "2026-07-18",
  "sourceRefs": [
    {"label": "OECD: Promoting resilience and preparedness in supply chains", "url": "https://www.oecd.org/en/publications/promoting-resilience-and-preparedness-in-supply-chains_be692d01-en.html"},
    {"label": "OECD: Resilient supply chains", "url": "https://www.oecd.org/en/topics/resilient-supply-chains.html"},
    {"label": "UNCTAD: World Investment Report 2020", "url": "https://unctad.org/publication/world-investment-report-2020"},
    {"label": "OECD-WTO-UNCTAD: Implications of Global Value Chains for Trade, Investment, Development and Jobs", "url": "https://unctad.org/system/files/official-document/unctad_oecd_wto_2013d1_en.pdf"}
  ],
  "limitationTH": "แผนผังเชิงแนวคิด ไม่ใช่แผนที่ ไม่แสดงเส้นทาง ระยะทาง ปริมาณ มูลค่า เวลา หรือบริษัทจริง"
}
  ]]></metadata>

  <defs>
    <linearGradient id="page-bg" x1="0" y1="0" x2="0" y2="1">
      <stop offset="0" stop-color="#FBFAF7"/>
      <stop offset="1" stop-color="#F2F5F4"/>
    </linearGradient>
    <pattern id="raw-pattern" width="12" height="12" patternUnits="userSpaceOnUse" patternTransform="rotate(35)">
      <rect width="12" height="12" fill="#F0E2D2"/>
      <line x1="0" y1="0" x2="0" y2="12" stroke="#A66C3F" stroke-width="3"/>
    </pattern>
    <pattern id="part-pattern" width="12" height="12" patternUnits="userSpaceOnUse">
      <rect width="12" height="12" fill="#DDEBFA"/>
      <circle cx="3" cy="3" r="1.6" fill="#3977B8"/>
      <circle cx="9" cy="9" r="1.6" fill="#3977B8"/>
    </pattern>
    <pattern id="impact-pattern" width="12" height="12" patternUnits="userSpaceOnUse" patternTransform="rotate(45)">
      <rect width="12" height="12" fill="#FAE6E1"/>
      <line x1="0" y1="0" x2="0" y2="12" stroke="#C7543B" stroke-width="2.5"/>
    </pattern>
    <filter id="shadow" x="-10%" y="-15%" width="120%" height="140%">
      <feDropShadow dx="0" dy="4" stdDeviation="5" flood-color="#17324D" flood-opacity="0.12"/>
    </filter>
    <marker id="arrow-raw" viewBox="0 0 10 10" refX="9" refY="5" markerWidth="8" markerHeight="8" orient="auto">
      <path d="M0 0 L10 5 L0 10 Z" fill="#A66C3F"/>
    </marker>
    <marker id="arrow-part" viewBox="0 0 10 10" refX="9" refY="5" markerWidth="8" markerHeight="8" orient="auto">
      <path d="M0 0 L10 5 L0 10 Z" fill="#2E6FBB"/>
    </marker>
    <marker id="arrow-product" viewBox="0 0 10 10" refX="9" refY="5" markerWidth="8" markerHeight="8" orient="auto">
      <path d="M0 0 L10 5 L0 10 Z" fill="#147D7A"/>
    </marker>
    <marker id="arrow-data" viewBox="0 0 10 10" refX="9" refY="5" markerWidth="7" markerHeight="7" orient="auto-start-reverse">
      <path d="M0 0 L10 5 L0 10 Z" fill="#7255A5"/>
    </marker>
    <marker id="arrow-money" viewBox="0 0 10 10" refX="9" refY="5" markerWidth="7" markerHeight="7" orient="auto">
      <path d="M0 0 L10 5 L0 10 Z" fill="#C68A19"/>
    </marker>
    <marker id="arrow-reverse" viewBox="0 0 10 10" refX="9" refY="5" markerWidth="7" markerHeight="7" orient="auto">
      <path d="M0 0 L10 5 L0 10 Z" fill="#4B8750"/>
    </marker>
    <marker id="arrow-impact" viewBox="0 0 10 10" refX="9" refY="5" markerWidth="7" markerHeight="7" orient="auto">
      <path d="M0 0 L10 5 L0 10 Z" fill="#C7543B"/>
    </marker>
    <style>
      text { font-family: "Noto Sans Thai", "Leelawadee UI", Tahoma, sans-serif; fill: #17324D; }
      .title { font-size: 50px; font-weight: 800; }
      .subtitle { font-size: 23px; font-weight: 500; }
      .stage { font-size: 21px; font-weight: 800; letter-spacing: .2px; }
      .section { font-size: 24px; font-weight: 800; }
      .label { font-size: 19px; font-weight: 750; }
      .body { font-size: 16px; font-weight: 500; }
      .small { font-size: 14px; font-weight: 500; }
      .tiny { font-size: 12px; font-weight: 500; }
      .inverse { fill: #FFFFFF; }
      .card { stroke: #B8C5CD; stroke-width: 2; filter: url(#shadow); }
      .raw-line { fill: none; stroke: #A66C3F; stroke-width: 4; marker-end: url(#arrow-raw); }
      .part-line { fill: none; stroke: #2E6FBB; stroke-width: 4; marker-end: url(#arrow-part); }
      .product-line { fill: none; stroke: #147D7A; stroke-width: 5; marker-end: url(#arrow-product); }
      .data-line { fill: none; stroke: #7255A5; stroke-width: 3; stroke-dasharray: 10 7; marker-start: url(#arrow-data); marker-end: url(#arrow-data); }
      .money-line { fill: none; stroke: #C68A19; stroke-width: 3; stroke-dasharray: 3 7; marker-end: url(#arrow-money); }
      .reverse-line { fill: none; stroke: #4B8750; stroke-width: 3; stroke-dasharray: 12 7; marker-end: url(#arrow-reverse); }
      .impact-line { fill: none; stroke: #C7543B; stroke-width: 3; stroke-dasharray: 2 7; marker-end: url(#arrow-impact); }
    </style>
  </defs>

  <rect width="1800" height="900" fill="url(#page-bg)"/>
  <rect x="0" y="0" width="18" height="900" fill="#147D7A"/>

  <!-- Header -->
  <text x="60" y="64" class="title">ห่วงโซ่อุปทานโลก</text>
  <text x="60" y="105" class="subtitle">ห่วงโซ่อุปทานเป็นเครือข่ายหลายชั้น สินค้า ข้อมูล เงิน และผลกระทบไหลต่างทิศ</text>
  <rect x="1435" y="37" width="305" height="58" rx="29" fill="#E7F1EF" stroke="#147D7A" stroke-width="2"/>
  <text x="1587" y="62" text-anchor="middle" class="small">แผนผัง node–link เชิงแนวคิด</text>
  <text x="1587" y="82" text-anchor="middle" class="tiny">ไม่ใช่แผนที่หรือเส้นทางจริง</text>
  <line x1="60" y1="130" x2="1740" y2="130" stroke="#CBD5DB" stroke-width="2"/>

  <!-- Stage bands -->
  <g aria-label="ต้นน้ำ กลางน้ำ และปลายน้ำ">
    <rect x="60" y="145" width="505" height="40" rx="12" fill="#F2E7D8" stroke="#B3835C" stroke-width="1.5"/>
    <text x="312" y="172" text-anchor="middle" class="stage">ต้นน้ำ • UPSTREAM</text>
    <rect x="580" y="145" width="640" height="40" rx="12" fill="#E5EFF9" stroke="#5D87B3" stroke-width="1.5"/>
    <text x="900" y="172" text-anchor="middle" class="stage">กลางน้ำ • MIDSTREAM</text>
    <rect x="1235" y="145" width="505" height="40" rx="12" fill="#E5F2ED" stroke="#5A9788" stroke-width="1.5"/>
    <text x="1487" y="172" text-anchor="middle" class="stage">ปลายน้ำ • DOWNSTREAM</text>
  </g>

  <!-- Network field -->
  <rect x="60" y="198" width="1680" height="405" rx="22" fill="#FFFFFF" class="card"/>

  <!-- Cross-network information and money flows -->
  <path d="M145 226 C520 205 1260 205 1650 226" class="data-line"/>
  <rect x="805" y="205" width="190" height="27" rx="13" fill="#F0EBF8" stroke="#7255A5" stroke-width="1.5"/>
  <text x="900" y="224" text-anchor="middle" class="small">ข้อมูล • ไหลสองทิศ</text>
  <path d="M1650 574 C1260 594 520 594 145 574" class="money-line"/>
  <rect x="815" y="565" width="170" height="27" rx="13" fill="#FFF3D6" stroke="#C68A19" stroke-width="1.5"/>
  <text x="900" y="584" text-anchor="middle" class="small">เงิน • ไหลย้อนต้นน้ำ</text>

  <!-- Physical flow links behind nodes -->
  <g aria-label="การไหลของวัตถุดิบ ชิ้นส่วน และสินค้า">
    <!-- raw materials to tier 2 -->
    <path d="M155 292 C215 292 258 270 316 266" class="raw-line"/>
    <path d="M155 374 C220 374 258 344 316 340" class="raw-line"/>
    <path d="M155 456 C218 456 260 425 316 414" class="raw-line"/>
    <path d="M155 292 C226 307 260 329 316 340" class="raw-line" opacity="0.72"/>
    <path d="M155 456 C225 445 263 424 316 414" class="raw-line" opacity="0.72"/>

    <!-- tier 2 to tier 1 -->
    <path d="M404 266 C475 267 525 296 585 310" class="part-line"/>
    <path d="M404 340 C482 340 525 324 585 310" class="part-line"/>
    <path d="M404 340 C475 354 530 410 585 430" class="part-line"/>
    <path d="M404 414 C478 414 530 424 585 430" class="part-line"/>

    <!-- tier 1 to assembly -->
    <path d="M675 310 C747 310 777 342 824 362" class="part-line"/>
    <path d="M675 430 C747 429 780 395 824 376" class="part-line"/>

    <!-- finished products -->
    <path d="M924 370 L1028 370" class="product-line"/>
    <path d="M1132 370 L1263 370" class="product-line"/>
    <path d="M1371 370 C1430 351 1482 312 1542 300" class="product-line"/>
    <path d="M1371 370 C1430 390 1482 430 1542 444" class="product-line"/>

    <!-- alternative logistics path -->
    <path d="M1125 408 C1215 505 1440 518 1548 465" fill="none" stroke="#147D7A" stroke-width="3" stroke-dasharray="12 8" marker-end="url(#arrow-product)"/>
  </g>

  <!-- Column labels -->
  <text x="110" y="254" text-anchor="middle" class="label">วัตถุดิบ</text>
  <text x="360" y="249" text-anchor="middle" class="label">ผู้ขายชั้นที่ 2</text>
  <text x="630" y="279" text-anchor="middle" class="label">ผู้ขายชั้นที่ 1</text>
  <text x="874" y="304" text-anchor="middle" class="label">ประกอบ</text>
  <text x="1080" y="304" text-anchor="middle" class="label">คลัง</text>
  <text x="1318" y="298" text-anchor="middle" class="label">ขนส่ง</text>
  <text x="1595" y="252" text-anchor="middle" class="label">ตลาด</text>

  <!-- Raw material nodes -->
  <g aria-label="โหนดวัตถุดิบ">
    <circle cx="112" cy="292" r="42" fill="url(#raw-pattern)" stroke="#93613D" stroke-width="2.5"/>
    <path d="M92 312 L101 278 L122 270 L134 290 L126 315 L104 321 Z" fill="#8D735F" stroke="#594839" stroke-width="2"/>
    <circle cx="112" cy="374" r="42" fill="#E7EFE0" stroke="#65845C" stroke-width="2.5"/>
    <path d="M112 344 L91 381 H104 L90 401 H134 L120 381 H133 Z" fill="#56835A"/>
    <rect x="108" y="391" width="8" height="15" fill="#79583F"/>
    <circle cx="112" cy="456" r="42" fill="#E4EEF8" stroke="#4C78A3" stroke-width="2.5"/>
    <path d="M112 429 C97 449 91 458 91 470 A21 21 0 0 0 133 470 C133 458 127 449 112 429 Z" fill="#357DBA"/>
  </g>

  <!-- Tier 2 nodes; middle node is concentrated dependency -->
  <g aria-label="ผู้ขายชั้นที่สองและความเสี่ยงกระจุกตัว">
    <path d="M330 240 H390 L410 266 L390 292 H330 L310 266 Z" fill="url(#part-pattern)" stroke="#2E6FBB" stroke-width="2.5"/>
    <text x="360" y="272" text-anchor="middle" class="small">ผู้ขาย ก</text>
    <circle cx="360" cy="340" r="55" fill="#FBE7E1" stroke="#C7543B" stroke-width="4" stroke-dasharray="8 5"/>
    <path d="M330 314 H390 L410 340 L390 366 H330 L310 340 Z" fill="url(#part-pattern)" stroke="#2E6FBB" stroke-width="2.5"/>
    <text x="360" y="346" text-anchor="middle" class="small">แหล่งร่วม</text>
    <rect x="416" y="321" width="146" height="39" rx="12" fill="#FBE7E1" stroke="#C7543B" stroke-width="1.5"/>
    <text x="489" y="337" text-anchor="middle" class="tiny">ความเสี่ยงกระจุกตัว</text>
    <text x="489" y="353" text-anchor="middle" class="tiny">หลายสายพึ่งจุดเดียว</text>
    <path d="M330 388 H390 L410 414 L390 440 H330 L310 414 Z" fill="url(#part-pattern)" stroke="#2E6FBB" stroke-width="2.5"/>
    <text x="360" y="420" text-anchor="middle" class="small">ผู้ขาย ข</text>
    <rect x="304" y="460" width="112" height="30" rx="15" fill="#EAF3E8" stroke="#4B8750" stroke-width="1.5"/>
    <text x="360" y="481" text-anchor="middle" class="tiny">ทางเลือกผู้ขาย</text>
  </g>

  <!-- Tier 1 nodes -->
  <g aria-label="ผู้ขายชั้นที่หนึ่ง">
    <rect x="585" y="291" width="90" height="58" rx="14" fill="#E5EFF9" stroke="#2E6FBB" stroke-width="2.5"/>
    <path d="M605 321 H654 M618 307 V335 M642 307 V335" stroke="#2E6FBB" stroke-width="3"/>
    <text x="630" y="365" text-anchor="middle" class="tiny">ชิ้นส่วนชุด A</text>
    <rect x="585" y="411" width="90" height="58" rx="14" fill="#E5EFF9" stroke="#2E6FBB" stroke-width="2.5"/>
    <circle cx="620" cy="440" r="15" fill="none" stroke="#2E6FBB" stroke-width="3"/>
    <path d="M640 427 L655 440 L640 453 Z" fill="#2E6FBB"/>
    <text x="630" y="485" text-anchor="middle" class="tiny">ชิ้นส่วนชุด B</text>
  </g>

  <!-- Assembly -->
  <g aria-label="การประกอบ">
    <rect x="824" y="320" width="100" height="100" rx="20" fill="#EDF2F5" stroke="#5C7280" stroke-width="2.5"/>
    <circle cx="874" cy="370" r="24" fill="none" stroke="#5C7280" stroke-width="5" stroke-dasharray="7 5"/>
    <circle cx="874" cy="370" r="8" fill="#5C7280"/>
    <text x="874" y="444" text-anchor="middle" class="tiny">รวมชิ้นส่วนหลายสาย</text>
  </g>

  <!-- Warehouse -->
  <g aria-label="คลัง สินค้าคงคลัง และ lead time">
    <rect x="1028" y="320" width="104" height="100" rx="16" fill="#EAF4F2" stroke="#147D7A" stroke-width="2.5"/>
    <path d="M1044 349 L1080 329 L1116 349 V405 H1044 Z" fill="#FFFFFF" stroke="#147D7A" stroke-width="3"/>
    <path d="M1057 365 H1074 V382 H1057 Z M1087 365 H1104 V382 H1087 Z" fill="#A9D3C9" stroke="#147D7A" stroke-width="1.5"/>
    <rect x="1018" y="434" width="124" height="27" rx="13" fill="#EAF4F2" stroke="#147D7A" stroke-width="1.5"/>
    <text x="1080" y="453" text-anchor="middle" class="tiny">สินค้าคงคลัง</text>
    <rect x="1033" y="468" width="94" height="27" rx="13" fill="#FFF3D6" stroke="#C68A19" stroke-width="1.5"/>
    <text x="1080" y="487" text-anchor="middle" class="tiny">lead time</text>
  </g>

  <!-- Chokepoint transport -->
  <g aria-label="จุดคอขวดในการขนส่ง">
    <circle cx="1318" cy="370" r="60" fill="#FBE7E1" stroke="#C7543B" stroke-width="3" stroke-dasharray="8 5"/>
    <path d="M1282 335 H1354 L1332 370 L1354 405 H1282 L1304 370 Z" fill="#FFFFFF" stroke="#C7543B" stroke-width="3"/>
    <path d="M1300 370 H1336" stroke="#C7543B" stroke-width="6" marker-end="url(#arrow-product)"/>
    <rect x="1251" y="440" width="134" height="30" rx="15" fill="#FBE7E1" stroke="#C7543B" stroke-width="1.5"/>
    <text x="1318" y="461" text-anchor="middle" class="small">จุดคอขวด</text>
    <text x="1318" y="490" text-anchor="middle" class="tiny">ท่า/ด่าน/ศูนย์ถ่ายลำเชิงแนวคิด</text>
  </g>

  <!-- Markets -->
  <g aria-label="ตลาดสองแห่ง">
    <rect x="1542" y="268" width="106" height="64" rx="14" fill="#EDF6EA" stroke="#4B8750" stroke-width="2.5"/>
    <path d="M1554 287 H1636 L1628 305 H1562 Z" fill="#8FC092"/>
    <path d="M1561 305 V322 M1580 305 V322 M1599 305 V322 M1618 305 V322" stroke="#4B8750" stroke-width="3"/>
    <text x="1595" y="349" text-anchor="middle" class="tiny">ตลาด 1</text>
    <rect x="1542" y="412" width="106" height="64" rx="14" fill="#EDF6EA" stroke="#4B8750" stroke-width="2.5"/>
    <path d="M1554 431 H1636 L1628 449 H1562 Z" fill="#8FC092"/>
    <path d="M1561 449 V466 M1580 449 V466 M1599 449 V466 M1618 449 V466" stroke="#4B8750" stroke-width="3"/>
    <text x="1595" y="493" text-anchor="middle" class="tiny">ตลาด 2</text>
  </g>

  <!-- Reverse flow -->
  <g aria-label="การคืนกลับ ซ่อม ใช้ซ้ำ และรีไซเคิล">
    <rect x="1128" y="516" width="300" height="37" rx="18" fill="#EAF3E8" stroke="#4B8750" stroke-width="1.5"/>
    <text x="1278" y="541" text-anchor="middle" class="small">ซ่อม • คืนสินค้า • ใช้ซ้ำ • รีไซเคิล</text>
    <path d="M1595 500 C1515 540 1465 540 1428 535" class="reverse-line"/>
    <path d="M1128 535 C1010 535 945 515 884 474" class="reverse-line"/>
    <path d="M846 472 C700 525 535 531 405 486" class="reverse-line"/>
  </g>

  <!-- Hidden impact arrows from multiple stages -->
  <path d="M360 442 L360 615" class="impact-line"/>
  <path d="M874 424 L874 615" class="impact-line"/>
  <path d="M1318 493 L1318 615" class="impact-line"/>

  <!-- Line legend -->
  <g aria-label="คำอธิบายเส้น">
    <rect x="60" y="620" width="1680" height="63" rx="17" fill="#EEF2F3" stroke="#A8B6BE" stroke-width="1.5"/>
    <text x="85" y="646" class="label">ทิศและชนิดการไหล</text>
    <line x1="85" y1="664" x2="145" y2="664" class="raw-line"/><text x="158" y="670" class="small">วัตถุดิบ</text>
    <line x1="260" y1="664" x2="320" y2="664" class="part-line"/><text x="333" y="670" class="small">ชิ้นส่วน</text>
    <line x1="435" y1="664" x2="495" y2="664" class="product-line"/><text x="508" y="670" class="small">สินค้า</text>
    <line x1="610" y1="664" x2="670" y2="664" class="data-line"/><text x="683" y="670" class="small">ข้อมูล</text>
    <line x1="785" y1="664" x2="845" y2="664" class="money-line"/><text x="858" y="670" class="small">เงิน</text>
    <line x1="945" y1="664" x2="1005" y2="664" class="reverse-line"/><text x="1018" y="670" class="small">การคืนกลับ</text>
    <line x1="1160" y1="664" x2="1220" y2="664" class="impact-line"/><text x="1233" y="670" class="small">ผลกระทบแฝง</text>
    <text x="1710" y="656" text-anchor="end" class="tiny">ความหนาเส้นใช้แยกชนิดเท่านั้น</text>
    <text x="1710" y="674" text-anchor="end" class="tiny">ไม่แทนปริมาณหรือมูลค่า</text>
  </g>

  <!-- Bottom panel 1: concentration and diversification -->
  <g aria-label="ความเสี่ยงกระจุกตัวและการกระจายผู้ขาย">
    <rect x="60" y="702" width="570" height="146" rx="20" fill="#FFFFFF" class="card"/>
    <text x="85" y="735" class="section">กระจุกตัว ≠ มีผู้ขายรายเดียวเท่านั้น</text>
    <circle cx="105" cy="779" r="17" fill="#FBE7E1" stroke="#C7543B" stroke-width="2"/>
    <path d="M122 779 H175 M175 779 L199 759 M175 779 L199 799" fill="none" stroke="#C7543B" stroke-width="3"/>
    <text x="218" y="766" class="body">ผู้ขายหลายรายอาจพึ่งแหล่งต้นน้ำเดียวกัน</text>
    <text x="218" y="791" class="small">จึงต้องมองลึกกว่าผู้ขายชั้นที่ 1</text>
    <rect x="85" y="809" width="520" height="25" rx="12" fill="#EAF3E8" stroke="#4B8750" stroke-width="1.2"/>
    <text x="345" y="827" text-anchor="middle" class="small">การกระจายผู้ขายเพิ่มทางเลือก แต่เพิ่มต้นทุนและความซับซ้อน</text>
  </g>

  <!-- Bottom panel 2: embedded impacts -->
  <g aria-label="ผลกระทบแฝงด้านสิ่งแวดล้อมและแรงงาน">
    <rect x="650" y="702" width="550" height="146" rx="20" fill="#FFFFFF" class="card"/>
    <text x="675" y="735" class="section">ผลกระทบแฝง</text>
    <rect x="675" y="752" width="238" height="74" rx="14" fill="#E9F3F1" stroke="#147D7A" stroke-width="1.5"/>
    <circle cx="704" cy="776" r="13" fill="#2E7D78"/>
    <path d="M704 765 C696 776 693 781 693 787 A11 11 0 0 0 715 787 C715 781 712 776 704 765 Z" fill="#FFFFFF"/>
    <text x="727" y="779" class="label">สิ่งแวดล้อม</text>
    <text x="693" y="811" class="small">น้ำ • พลังงาน • คาร์บอน • ของเสีย</text>
    <rect x="934" y="752" width="241" height="74" rx="14" fill="#FFF0EC" stroke="#C7543B" stroke-width="1.5"/>
    <circle cx="963" cy="776" r="13" fill="#C7543B"/>
    <circle cx="963" cy="771" r="4" fill="#FFFFFF"/><path d="M954 790 C955 780 971 780 972 790" fill="none" stroke="#FFFFFF" stroke-width="3"/>
    <text x="986" y="779" class="label">แรงงาน</text>
    <text x="952" y="811" class="small">ค่าจ้าง • เวลา • ความปลอดภัย • สิทธิ</text>
  </g>

  <!-- Bottom panel 3: no free solution -->
  <g aria-label="ข้อจำกัดของกลยุทธ์ความยืดหยุ่น">
    <rect x="1220" y="702" width="520" height="146" rx="20" fill="#FFFFFF" class="card"/>
    <text x="1245" y="735" class="section">ความยืดหยุ่นต้องแลกกับต้นทุน</text>
    <text x="1245" y="765" class="body">• สำรองสินค้าและกำลังผลิต</text>
    <text x="1480" y="765" class="body">• กระจายผู้ขายและเส้นทาง</text>
    <text x="1245" y="792" class="body">• มองเห็นผู้ขายหลายชั้น</text>
    <text x="1480" y="792" class="body">• ร่วมมือและตอบสนองเร็ว</text>
    <rect x="1245" y="808" width="470" height="28" rx="14" fill="#FFF3D6" stroke="#C68A19" stroke-width="1.4"/>
    <text x="1480" y="827" text-anchor="middle" class="small">เส้นทางสั้นกว่า หรือย้ายฐาน ไม่ได้ยืดหยุ่นกว่าเสมอ</text>
  </g>

  <!-- Footer -->
  <text x="60" y="879" class="tiny" fill="#526875">แผนผังเชิงแนวคิด • ไม่มีพิกัด เส้นทาง บริษัท ปริมาณ มูลค่า หรือระยะเวลาจริง</text>
  <text x="1740" y="879" text-anchor="end" class="tiny" fill="#526875">กรอบอ้างอิง: OECD • UNCTAD • OECD–WTO–UNCTAD</text>
</svg>
